<?xml version="1.0" encoding="utf-8" standalone="no"?>
<!DOCTYPE svg PUBLIC "-//W3C//DTD SVG 1.1//EN"
  "http://www.w3.org/Graphics/SVG/1.1/DTD/svg11.dtd">
<svg xmlns:xlink="http://www.w3.org/1999/xlink" width="864pt" height="288pt" viewBox="0 0 864 288" xmlns="http://www.w3.org/2000/svg" version="1.1">
 <metadata>
  <rdf:RDF xmlns:dc="http://purl.org/dc/elements/1.1/" xmlns:cc="http://creativecommons.org/ns#" xmlns:rdf="http://www.w3.org/1999/02/22-rdf-syntax-ns#">
   <cc:Work>
    <dc:type rdf:resource="http://purl.org/dc/dcmitype/StillImage"/>
    <dc:date>2025-08-07T14:46:40.880976</dc:date>
    <dc:format>image/svg+xml</dc:format>
    <dc:creator>
     <cc:Agent>
      <dc:title>Matplotlib v3.10.5, https://matplotlib.org/</dc:title>
     </cc:Agent>
    </dc:creator>
   </cc:Work>
  </rdf:RDF>
 </metadata>
 <defs>
  <style type="text/css">*{stroke-linejoin: round; stroke-linecap: butt}</style>
 </defs>
 <g id="figure_1">
  <g id="patch_1">
   <path d="M 0 288 
L 864 288 
L 864 0 
L 0 0 
z
" style="fill: #f9fafb"/>
  </g>
  <g id="axes_1">
   <g id="patch_2">
    <path d="M 15.12 272.88 
L 424.44 272.88 
L 424.44 32.46769 
L 15.12 32.46769 
z
" style="fill: #f9fafb"/>
   </g>
   <g id="line2d_1">
    <path d="M 33.725455 87.017151 
L 33.725455 218.330539 
" clip-path="url(#p6e78ebfdad)" style="fill: none; stroke: #000000; stroke-opacity: 0.2; stroke-width: 1.5; stroke-linecap: square"/>
   </g>
   <g id="line2d_2">
    <path d="M 43.266713 87.017151 
L 43.266713 218.330539 
" clip-path="url(#p6e78ebfdad)" style="fill: none; stroke: #000000; stroke-opacity: 0.2; stroke-width: 1.5; stroke-linecap: square"/>
   </g>
   <g id="line2d_3">
    <path d="M 52.807972 87.017151 
L 52.807972 218.330539 
" clip-path="url(#p6e78ebfdad)" style="fill: none; stroke: #000000; stroke-opacity: 0.2; stroke-width: 1.5; stroke-linecap: square"/>
   </g>
   <g id="line2d_4">
    <path d="M 62.349231 87.017151 
L 62.349231 218.330539 
" clip-path="url(#p6e78ebfdad)" style="fill: none; stroke: #000000; stroke-opacity: 0.2; stroke-width: 1.5; stroke-linecap: square"/>
   </g>
   <g id="line2d_5">
    <path d="M 71.89049 87.017151 
L 71.89049 218.330539 
" clip-path="url(#p6e78ebfdad)" style="fill: none; stroke: #000000; stroke-opacity: 0.2; stroke-width: 1.5; stroke-linecap: square"/>
   </g>
   <g id="line2d_6">
    <path d="M 81.431748 87.017151 
L 81.431748 218.330539 
" clip-path="url(#p6e78ebfdad)" style="fill: none; stroke: #000000; stroke-opacity: 0.2; stroke-width: 1.5; stroke-linecap: square"/>
   </g>
   <g id="line2d_7">
    <path d="M 90.973007 72.804688 
L 90.973007 218.330539 
" clip-path="url(#p6e78ebfdad)" style="fill: none; stroke: #000000; stroke-opacity: 0.2; stroke-width: 1.5; stroke-linecap: square"/>
   </g>
   <g id="line2d_8">
    <path d="M 100.514266 60.132367 
L 100.514266 218.330539 
" clip-path="url(#p6e78ebfdad)" style="fill: none; stroke: #000000; stroke-opacity: 0.2; stroke-width: 1.5; stroke-linecap: square"/>
   </g>
   <g id="line2d_9">
    <path d="M 110.055524 50.373429 
L 110.055524 218.330539 
" clip-path="url(#p6e78ebfdad)" style="fill: none; stroke: #000000; stroke-opacity: 0.2; stroke-width: 1.5; stroke-linecap: square"/>
   </g>
   <g id="line2d_10">
    <path d="M 119.596783 44.585406 
L 119.596783 218.330539 
" clip-path="url(#p6e78ebfdad)" style="fill: none; stroke: #000000; stroke-opacity: 0.2; stroke-width: 1.5; stroke-linecap: square"/>
   </g>
   <g id="line2d_11">
    <path d="M 129.138042 43.395522 
L 129.138042 218.330539 
" clip-path="url(#p6e78ebfdad)" style="fill: none; stroke: #000000; stroke-opacity: 0.2; stroke-width: 1.5; stroke-linecap: square"/>
   </g>
   <g id="line2d_12">
    <path d="M 138.679301 46.932718 
L 138.679301 204.118076 
" clip-path="url(#p6e78ebfdad)" style="fill: none; stroke: #000000; stroke-opacity: 0.2; stroke-width: 1.5; stroke-linecap: square"/>
   </g>
   <g id="line2d_13">
    <path d="M 148.220559 54.813684 
L 148.220559 191.445755 
" clip-path="url(#p6e78ebfdad)" style="fill: none; stroke: #000000; stroke-opacity: 0.2; stroke-width: 1.5; stroke-linecap: square"/>
   </g>
   <g id="line2d_14">
    <path d="M 157.761818 66.184396 
L 157.761818 181.686817 
" clip-path="url(#p6e78ebfdad)" style="fill: none; stroke: #000000; stroke-opacity: 0.2; stroke-width: 1.5; stroke-linecap: square"/>
   </g>
   <g id="line2d_15">
    <path d="M 167.303077 79.81266 
L 167.303077 175.898794 
" clip-path="url(#p6e78ebfdad)" style="fill: none; stroke: #000000; stroke-opacity: 0.2; stroke-width: 1.5; stroke-linecap: square"/>
   </g>
   <g id="line2d_16">
    <path d="M 176.844336 94.221642 
L 176.844336 174.70891 
" clip-path="url(#p6e78ebfdad)" style="fill: none; stroke: #000000; stroke-opacity: 0.2; stroke-width: 1.5; stroke-linecap: square"/>
   </g>
   <g id="line2d_17">
    <path d="M 186.385594 107.849906 
L 186.385594 178.246106 
" clip-path="url(#p6e78ebfdad)" style="fill: none; stroke: #000000; stroke-opacity: 0.2; stroke-width: 1.5; stroke-linecap: square"/>
   </g>
   <g id="line2d_18">
    <path d="M 195.926853 119.220617 
L 195.926853 186.127072 
" clip-path="url(#p6e78ebfdad)" style="fill: none; stroke: #000000; stroke-opacity: 0.2; stroke-width: 1.5; stroke-linecap: square"/>
   </g>
   <g id="line2d_19">
    <path d="M 205.468112 127.101584 
L 205.468112 197.497784 
" clip-path="url(#p6e78ebfdad)" style="fill: none; stroke: #000000; stroke-opacity: 0.2; stroke-width: 1.5; stroke-linecap: square"/>
   </g>
   <g id="line2d_20">
    <path d="M 215.009371 130.63878 
L 215.009371 211.126048 
" clip-path="url(#p6e78ebfdad)" style="fill: none; stroke: #000000; stroke-opacity: 0.2; stroke-width: 1.5; stroke-linecap: square"/>
   </g>
   <g id="line2d_21">
    <path d="M 224.550629 129.448895 
L 224.550629 225.53503 
" clip-path="url(#p6e78ebfdad)" style="fill: none; stroke: #000000; stroke-opacity: 0.2; stroke-width: 1.5; stroke-linecap: square"/>
   </g>
   <g id="line2d_22">
    <path d="M 234.091888 123.660873 
L 234.091888 239.163294 
" clip-path="url(#p6e78ebfdad)" style="fill: none; stroke: #000000; stroke-opacity: 0.2; stroke-width: 1.5; stroke-linecap: square"/>
   </g>
   <g id="line2d_23">
    <path d="M 243.633147 113.901935 
L 243.633147 250.534005 
" clip-path="url(#p6e78ebfdad)" style="fill: none; stroke: #000000; stroke-opacity: 0.2; stroke-width: 1.5; stroke-linecap: square"/>
   </g>
   <g id="line2d_24">
    <path d="M 253.174406 101.229613 
L 253.174406 258.414972 
" clip-path="url(#p6e78ebfdad)" style="fill: none; stroke: #000000; stroke-opacity: 0.2; stroke-width: 1.5; stroke-linecap: square"/>
   </g>
   <g id="line2d_25">
    <path d="M 262.715664 87.017151 
L 262.715664 261.952168 
" clip-path="url(#p6e78ebfdad)" style="fill: none; stroke: #000000; stroke-opacity: 0.2; stroke-width: 1.5; stroke-linecap: square"/>
   </g>
   <g id="line2d_26">
    <path d="M 272.256923 87.017151 
L 272.256923 260.762283 
" clip-path="url(#p6e78ebfdad)" style="fill: none; stroke: #000000; stroke-opacity: 0.2; stroke-width: 1.5; stroke-linecap: square"/>
   </g>
   <g id="line2d_27">
    <path d="M 281.798182 87.017151 
L 281.798182 254.974261 
" clip-path="url(#p6e78ebfdad)" style="fill: none; stroke: #000000; stroke-opacity: 0.2; stroke-width: 1.5; stroke-linecap: square"/>
   </g>
   <g id="line2d_28">
    <path d="M 291.339441 87.017151 
L 291.339441 245.215323 
" clip-path="url(#p6e78ebfdad)" style="fill: none; stroke: #000000; stroke-opacity: 0.2; stroke-width: 1.5; stroke-linecap: square"/>
   </g>
   <g id="line2d_29">
    <path d="M 300.880699 87.017151 
L 300.880699 232.543001 
" clip-path="url(#p6e78ebfdad)" style="fill: none; stroke: #000000; stroke-opacity: 0.2; stroke-width: 1.5; stroke-linecap: square"/>
   </g>
   <g id="line2d_30">
    <path d="M 310.421958 87.017151 
L 310.421958 218.330539 
" clip-path="url(#p6e78ebfdad)" style="fill: none; stroke: #000000; stroke-opacity: 0.2; stroke-width: 1.5; stroke-linecap: square"/>
   </g>
   <g id="line2d_31">
    <path d="M 319.963217 87.017151 
L 319.963217 218.330539 
" clip-path="url(#p6e78ebfdad)" style="fill: none; stroke: #000000; stroke-opacity: 0.2; stroke-width: 1.5; stroke-linecap: square"/>
   </g>
   <g id="line2d_32">
    <path d="M 329.504476 87.017151 
L 329.504476 218.330539 
" clip-path="url(#p6e78ebfdad)" style="fill: none; stroke: #000000; stroke-opacity: 0.2; stroke-width: 1.5; stroke-linecap: square"/>
   </g>
   <g id="line2d_33">
    <path d="M 339.045734 87.017151 
L 339.045734 218.330539 
" clip-path="url(#p6e78ebfdad)" style="fill: none; stroke: #000000; stroke-opacity: 0.2; stroke-width: 1.5; stroke-linecap: square"/>
   </g>
   <g id="line2d_34">
    <path d="M 348.586993 87.017151 
L 348.586993 218.330539 
" clip-path="url(#p6e78ebfdad)" style="fill: none; stroke: #000000; stroke-opacity: 0.2; stroke-width: 1.5; stroke-linecap: square"/>
   </g>
   <g id="line2d_35">
    <path d="M 358.128252 87.017151 
L 358.128252 218.330539 
" clip-path="url(#p6e78ebfdad)" style="fill: none; stroke: #000000; stroke-opacity: 0.2; stroke-width: 1.5; stroke-linecap: square"/>
   </g>
   <g id="line2d_36">
    <path d="M 367.66951 87.017151 
L 367.66951 218.330539 
" clip-path="url(#p6e78ebfdad)" style="fill: none; stroke: #000000; stroke-opacity: 0.2; stroke-width: 1.5; stroke-linecap: square"/>
   </g>
   <g id="line2d_37">
    <path d="M 377.210769 87.017151 
L 377.210769 218.330539 
" clip-path="url(#p6e78ebfdad)" style="fill: none; stroke: #000000; stroke-opacity: 0.2; stroke-width: 1.5; stroke-linecap: square"/>
   </g>
   <g id="line2d_38">
    <path d="M 386.752028 87.017151 
L 386.752028 218.330539 
" clip-path="url(#p6e78ebfdad)" style="fill: none; stroke: #000000; stroke-opacity: 0.2; stroke-width: 1.5; stroke-linecap: square"/>
   </g>
   <g id="line2d_39">
    <path d="M 396.293287 87.017151 
L 396.293287 218.330539 
" clip-path="url(#p6e78ebfdad)" style="fill: none; stroke: #000000; stroke-opacity: 0.2; stroke-width: 1.5; stroke-linecap: square"/>
   </g>
   <g id="line2d_40">
    <path d="M 405.834545 87.017151 
L 405.834545 218.330539 
" clip-path="url(#p6e78ebfdad)" style="fill: none; stroke: #000000; stroke-opacity: 0.2; stroke-width: 1.5; stroke-linecap: square"/>
   </g>
   <g id="line2d_41">
    <path d="M 33.725455 87.017151 
L 43.266713 87.017151 
L 52.807972 87.017151 
L 62.349231 87.017151 
L 71.89049 87.017151 
L 81.431748 87.017151 
L 90.973007 72.804688 
L 100.514266 60.132367 
L 110.055524 50.373429 
L 119.596783 44.585406 
L 129.138042 43.395522 
L 138.679301 46.932718 
L 148.220559 54.813684 
L 157.761818 66.184396 
L 167.303077 79.81266 
L 176.844336 94.221642 
L 186.385594 107.849906 
L 195.926853 119.220617 
L 205.468112 127.101584 
L 215.009371 130.63878 
L 224.550629 129.448895 
L 234.091888 123.660873 
L 243.633147 113.901935 
L 253.174406 101.229613 
L 262.715664 87.017151 
L 272.256923 87.017151 
L 281.798182 87.017151 
L 291.339441 87.017151 
L 300.880699 87.017151 
L 310.421958 87.017151 
L 319.963217 87.017151 
L 329.504476 87.017151 
L 339.045734 87.017151 
L 348.586993 87.017151 
L 358.128252 87.017151 
L 367.66951 87.017151 
L 377.210769 87.017151 
L 386.752028 87.017151 
L 396.293287 87.017151 
L 405.834545 87.017151 
" clip-path="url(#p6e78ebfdad)" style="fill: none; stroke: #ff7f00; stroke-width: 1.5; stroke-linecap: square"/>
    <defs>
     <path id="mbfd8532314" d="M 0 3 
C 0.795609 3 1.55874 2.683901 2.12132 2.12132 
C 2.683901 1.55874 3 0.795609 3 0 
C 3 -0.795609 2.683901 -1.55874 2.12132 -2.12132 
C 1.55874 -2.683901 0.795609 -3 0 -3 
C -0.795609 -3 -1.55874 -2.683901 -2.12132 -2.12132 
C -2.683901 -1.55874 -3 -0.795609 -3 0 
C -3 0.795609 -2.683901 1.55874 -2.12132 2.12132 
C -1.55874 2.683901 -0.795609 3 0 3 
z
" style="stroke: #ff7f00"/>
    </defs>
    <g clip-path="url(#p6e78ebfdad)">
     <use xlink:href="#mbfd8532314" x="33.725455" y="87.017151" style="fill: #ff7f00; stroke: #ff7f00"/>
     <use xlink:href="#mbfd8532314" x="43.266713" y="87.017151" style="fill: #ff7f00; stroke: #ff7f00"/>
     <use xlink:href="#mbfd8532314" x="52.807972" y="87.017151" style="fill: #ff7f00; stroke: #ff7f00"/>
     <use xlink:href="#mbfd8532314" x="62.349231" y="87.017151" style="fill: #ff7f00; stroke: #ff7f00"/>
     <use xlink:href="#mbfd8532314" x="71.89049" y="87.017151" style="fill: #ff7f00; stroke: #ff7f00"/>
     <use xlink:href="#mbfd8532314" x="81.431748" y="87.017151" style="fill: #ff7f00; stroke: #ff7f00"/>
     <use xlink:href="#mbfd8532314" x="90.973007" y="72.804688" style="fill: #ff7f00; stroke: #ff7f00"/>
     <use xlink:href="#mbfd8532314" x="100.514266" y="60.132367" style="fill: #ff7f00; stroke: #ff7f00"/>
     <use xlink:href="#mbfd8532314" x="110.055524" y="50.373429" style="fill: #ff7f00; stroke: #ff7f00"/>
     <use xlink:href="#mbfd8532314" x="119.596783" y="44.585406" style="fill: #ff7f00; stroke: #ff7f00"/>
     <use xlink:href="#mbfd8532314" x="129.138042" y="43.395522" style="fill: #ff7f00; stroke: #ff7f00"/>
     <use xlink:href="#mbfd8532314" x="138.679301" y="46.932718" style="fill: #ff7f00; stroke: #ff7f00"/>
     <use xlink:href="#mbfd8532314" x="148.220559" y="54.813684" style="fill: #ff7f00; stroke: #ff7f00"/>
     <use xlink:href="#mbfd8532314" x="157.761818" y="66.184396" style="fill: #ff7f00; stroke: #ff7f00"/>
     <use xlink:href="#mbfd8532314" x="167.303077" y="79.81266" style="fill: #ff7f00; stroke: #ff7f00"/>
     <use xlink:href="#mbfd8532314" x="176.844336" y="94.221642" style="fill: #ff7f00; stroke: #ff7f00"/>
     <use xlink:href="#mbfd8532314" x="186.385594" y="107.849906" style="fill: #ff7f00; stroke: #ff7f00"/>
     <use xlink:href="#mbfd8532314" x="195.926853" y="119.220617" style="fill: #ff7f00; stroke: #ff7f00"/>
     <use xlink:href="#mbfd8532314" x="205.468112" y="127.101584" style="fill: #ff7f00; stroke: #ff7f00"/>
     <use xlink:href="#mbfd8532314" x="215.009371" y="130.63878" style="fill: #ff7f00; stroke: #ff7f00"/>
     <use xlink:href="#mbfd8532314" x="224.550629" y="129.448895" style="fill: #ff7f00; stroke: #ff7f00"/>
     <use xlink:href="#mbfd8532314" x="234.091888" y="123.660873" style="fill: #ff7f00; stroke: #ff7f00"/>
     <use xlink:href="#mbfd8532314" x="243.633147" y="113.901935" style="fill: #ff7f00; stroke: #ff7f00"/>
     <use xlink:href="#mbfd8532314" x="253.174406" y="101.229613" style="fill: #ff7f00; stroke: #ff7f00"/>
     <use xlink:href="#mbfd8532314" x="262.715664" y="87.017151" style="fill: #ff7f00; stroke: #ff7f00"/>
     <use xlink:href="#mbfd8532314" x="272.256923" y="87.017151" style="fill: #ff7f00; stroke: #ff7f00"/>
     <use xlink:href="#mbfd8532314" x="281.798182" y="87.017151" style="fill: #ff7f00; stroke: #ff7f00"/>
     <use xlink:href="#mbfd8532314" x="291.339441" y="87.017151" style="fill: #ff7f00; stroke: #ff7f00"/>
     <use xlink:href="#mbfd8532314" x="300.880699" y="87.017151" style="fill: #ff7f00; stroke: #ff7f00"/>
     <use xlink:href="#mbfd8532314" x="310.421958" y="87.017151" style="fill: #ff7f00; stroke: #ff7f00"/>
     <use xlink:href="#mbfd8532314" x="319.963217" y="87.017151" style="fill: #ff7f00; stroke: #ff7f00"/>
     <use xlink:href="#mbfd8532314" x="329.504476" y="87.017151" style="fill: #ff7f00; stroke: #ff7f00"/>
     <use xlink:href="#mbfd8532314" x="339.045734" y="87.017151" style="fill: #ff7f00; stroke: #ff7f00"/>
     <use xlink:href="#mbfd8532314" x="348.586993" y="87.017151" style="fill: #ff7f00; stroke: #ff7f00"/>
     <use xlink:href="#mbfd8532314" x="358.128252" y="87.017151" style="fill: #ff7f00; stroke: #ff7f00"/>
     <use xlink:href="#mbfd8532314" x="367.66951" y="87.017151" style="fill: #ff7f00; stroke: #ff7f00"/>
     <use xlink:href="#mbfd8532314" x="377.210769" y="87.017151" style="fill: #ff7f00; stroke: #ff7f00"/>
     <use xlink:href="#mbfd8532314" x="386.752028" y="87.017151" style="fill: #ff7f00; stroke: #ff7f00"/>
     <use xlink:href="#mbfd8532314" x="396.293287" y="87.017151" style="fill: #ff7f00; stroke: #ff7f00"/>
     <use xlink:href="#mbfd8532314" x="405.834545" y="87.017151" style="fill: #ff7f00; stroke: #ff7f00"/>
    </g>
   </g>
   <g id="line2d_42">
    <path d="M 33.725455 218.330539 
L 43.266713 218.330539 
L 52.807972 218.330539 
L 62.349231 218.330539 
L 71.89049 218.330539 
L 81.431748 218.330539 
L 90.973007 218.330539 
L 100.514266 218.330539 
L 110.055524 218.330539 
L 119.596783 218.330539 
L 129.138042 218.330539 
L 138.679301 204.118076 
L 148.220559 191.445755 
L 157.761818 181.686817 
L 167.303077 175.898794 
L 176.844336 174.70891 
L 186.385594 178.246106 
L 195.926853 186.127072 
L 205.468112 197.497784 
L 215.009371 211.126048 
L 224.550629 225.53503 
L 234.091888 239.163294 
L 243.633147 250.534005 
L 253.174406 258.414972 
L 262.715664 261.952168 
L 272.256923 260.762283 
L 281.798182 254.974261 
L 291.339441 245.215323 
L 300.880699 232.543001 
L 310.421958 218.330539 
L 319.963217 218.330539 
L 329.504476 218.330539 
L 339.045734 218.330539 
L 348.586993 218.330539 
L 358.128252 218.330539 
L 367.66951 218.330539 
L 377.210769 218.330539 
L 386.752028 218.330539 
L 396.293287 218.330539 
L 405.834545 218.330539 
" clip-path="url(#p6e78ebfdad)" style="fill: none; stroke: #ff7f00; stroke-width: 1.5; stroke-linecap: square"/>
    <g clip-path="url(#p6e78ebfdad)">
     <use xlink:href="#mbfd8532314" x="33.725455" y="218.330539" style="fill: #ff7f00; stroke: #ff7f00"/>
     <use xlink:href="#mbfd8532314" x="43.266713" y="218.330539" style="fill: #ff7f00; stroke: #ff7f00"/>
     <use xlink:href="#mbfd8532314" x="52.807972" y="218.330539" style="fill: #ff7f00; stroke: #ff7f00"/>
     <use xlink:href="#mbfd8532314" x="62.349231" y="218.330539" style="fill: #ff7f00; stroke: #ff7f00"/>
     <use xlink:href="#mbfd8532314" x="71.89049" y="218.330539" style="fill: #ff7f00; stroke: #ff7f00"/>
     <use xlink:href="#mbfd8532314" x="81.431748" y="218.330539" style="fill: #ff7f00; stroke: #ff7f00"/>
     <use xlink:href="#mbfd8532314" x="90.973007" y="218.330539" style="fill: #ff7f00; stroke: #ff7f00"/>
     <use xlink:href="#mbfd8532314" x="100.514266" y="218.330539" style="fill: #ff7f00; stroke: #ff7f00"/>
     <use xlink:href="#mbfd8532314" x="110.055524" y="218.330539" style="fill: #ff7f00; stroke: #ff7f00"/>
     <use xlink:href="#mbfd8532314" x="119.596783" y="218.330539" style="fill: #ff7f00; stroke: #ff7f00"/>
     <use xlink:href="#mbfd8532314" x="129.138042" y="218.330539" style="fill: #ff7f00; stroke: #ff7f00"/>
     <use xlink:href="#mbfd8532314" x="138.679301" y="204.118076" style="fill: #ff7f00; stroke: #ff7f00"/>
     <use xlink:href="#mbfd8532314" x="148.220559" y="191.445755" style="fill: #ff7f00; stroke: #ff7f00"/>
     <use xlink:href="#mbfd8532314" x="157.761818" y="181.686817" style="fill: #ff7f00; stroke: #ff7f00"/>
     <use xlink:href="#mbfd8532314" x="167.303077" y="175.898794" style="fill: #ff7f00; stroke: #ff7f00"/>
     <use xlink:href="#mbfd8532314" x="176.844336" y="174.70891" style="fill: #ff7f00; stroke: #ff7f00"/>
     <use xlink:href="#mbfd8532314" x="186.385594" y="178.246106" style="fill: #ff7f00; stroke: #ff7f00"/>
     <use xlink:href="#mbfd8532314" x="195.926853" y="186.127072" style="fill: #ff7f00; stroke: #ff7f00"/>
     <use xlink:href="#mbfd8532314" x="205.468112" y="197.497784" style="fill: #ff7f00; stroke: #ff7f00"/>
     <use xlink:href="#mbfd8532314" x="215.009371" y="211.126048" style="fill: #ff7f00; stroke: #ff7f00"/>
     <use xlink:href="#mbfd8532314" x="224.550629" y="225.53503" style="fill: #ff7f00; stroke: #ff7f00"/>
     <use xlink:href="#mbfd8532314" x="234.091888" y="239.163294" style="fill: #ff7f00; stroke: #ff7f00"/>
     <use xlink:href="#mbfd8532314" x="243.633147" y="250.534005" style="fill: #ff7f00; stroke: #ff7f00"/>
     <use xlink:href="#mbfd8532314" x="253.174406" y="258.414972" style="fill: #ff7f00; stroke: #ff7f00"/>
     <use xlink:href="#mbfd8532314" x="262.715664" y="261.952168" style="fill: #ff7f00; stroke: #ff7f00"/>
     <use xlink:href="#mbfd8532314" x="272.256923" y="260.762283" style="fill: #ff7f00; stroke: #ff7f00"/>
     <use xlink:href="#mbfd8532314" x="281.798182" y="254.974261" style="fill: #ff7f00; stroke: #ff7f00"/>
     <use xlink:href="#mbfd8532314" x="291.339441" y="245.215323" style="fill: #ff7f00; stroke: #ff7f00"/>
     <use xlink:href="#mbfd8532314" x="300.880699" y="232.543001" style="fill: #ff7f00; stroke: #ff7f00"/>
     <use xlink:href="#mbfd8532314" x="310.421958" y="218.330539" style="fill: #ff7f00; stroke: #ff7f00"/>
     <use xlink:href="#mbfd8532314" x="319.963217" y="218.330539" style="fill: #ff7f00; stroke: #ff7f00"/>
     <use xlink:href="#mbfd8532314" x="329.504476" y="218.330539" style="fill: #ff7f00; stroke: #ff7f00"/>
     <use xlink:href="#mbfd8532314" x="339.045734" y="218.330539" style="fill: #ff7f00; stroke: #ff7f00"/>
     <use xlink:href="#mbfd8532314" x="348.586993" y="218.330539" style="fill: #ff7f00; stroke: #ff7f00"/>
     <use xlink:href="#mbfd8532314" x="358.128252" y="218.330539" style="fill: #ff7f00; stroke: #ff7f00"/>
     <use xlink:href="#mbfd8532314" x="367.66951" y="218.330539" style="fill: #ff7f00; stroke: #ff7f00"/>
     <use xlink:href="#mbfd8532314" x="377.210769" y="218.330539" style="fill: #ff7f00; stroke: #ff7f00"/>
     <use xlink:href="#mbfd8532314" x="386.752028" y="218.330539" style="fill: #ff7f00; stroke: #ff7f00"/>
     <use xlink:href="#mbfd8532314" x="396.293287" y="218.330539" style="fill: #ff7f00; stroke: #ff7f00"/>
     <use xlink:href="#mbfd8532314" x="405.834545" y="218.330539" style="fill: #ff7f00; stroke: #ff7f00"/>
    </g>
   </g>
   <g id="matplotlib.axis_1"/>
   <g id="matplotlib.axis_2"/>
   <g id="patch_3">
    <path d="M 15.12 272.88 
L 15.12 32.46769 
" style="fill: none; stroke: #000000; stroke-width: 0.8; stroke-linejoin: miter; stroke-linecap: square"/>
   </g>
   <g id="patch_4">
    <path d="M 424.44 272.88 
L 424.44 32.46769 
" style="fill: none; stroke: #000000; stroke-width: 0.8; stroke-linejoin: miter; stroke-linecap: square"/>
   </g>
   <g id="patch_5">
    <path d="M 15.12 272.88 
L 424.44 272.88 
" style="fill: none; stroke: #000000; stroke-width: 0.8; stroke-linejoin: miter; stroke-linecap: square"/>
   </g>
   <g id="patch_6">
    <path d="M 15.12 32.46769 
L 424.44 32.46769 
" style="fill: none; stroke: #000000; stroke-width: 0.8; stroke-linejoin: miter; stroke-linecap: square"/>
   </g>
   <g id="text_1">
    <!-- Euclidean distance -->
    <g transform="translate(156.798514 26.46769) scale(0.168 -0.168)">
     <defs>
      <path id="NimbusRomNo9L-Regu-45" d="M 3821 1078 
L 3642 1078 
C 3322 389 3046 237 2131 237 
L 1958 237 
C 1645 237 1376 269 1331 315 
C 1299 334 1286 404 1286 514 
L 1286 2106 
L 2272 2106 
C 2797 2106 2893 2020 2976 1472 
L 3123 1472 
L 3123 2957 
L 2976 2957 
C 2931 2703 2906 2610 2835 2523 
C 2752 2417 2573 2368 2272 2368 
L 1286 2368 
L 1286 3766 
C 1286 3943 1325 3981 1498 3981 
L 2362 3981 
C 3085 3981 3226 3886 3334 3314 
L 3494 3314 
L 3475 4224 
L 77 4224 
L 77 4102 
C 550 4064 634 3974 634 3525 
L 634 679 
C 634 230 544 134 77 134 
L 77 0 
L 3533 0 
L 3821 1078 
z
" transform="scale(0.015625)"/>
      <path id="NimbusRomNo9L-Regu-75" d="M 3066 320 
L 3034 320 
C 2739 320 2669 390 2669 685 
L 2669 2880 
L 1658 2880 
L 1658 2758 
C 2054 2758 2131 2694 2131 2375 
L 2131 875 
C 2131 697 2099 607 2010 537 
C 1837 397 1638 320 1446 320 
C 1197 320 992 537 992 805 
L 992 2880 
L 58 2880 
L 58 2778 
C 365 2778 454 2682 454 2387 
L 454 770 
C 454 263 762 -64 1229 -64 
C 1466 -64 1715 38 1888 211 
L 2163 486 
L 2163 -45 
L 2189 -58 
C 2509 70 2739 141 3066 230 
L 3066 320 
z
" transform="scale(0.015625)"/>
      <path id="NimbusRomNo9L-Regu-63" d="M 2547 998 
C 2240 550 2010 397 1645 397 
C 1062 397 653 909 653 1645 
C 653 2304 1005 2758 1523 2758 
C 1754 2758 1837 2688 1901 2451 
L 1939 2310 
C 1990 2131 2106 2016 2240 2016 
C 2406 2016 2547 2138 2547 2285 
C 2547 2643 2099 2944 1562 2944 
C 1248 2944 922 2816 659 2586 
C 339 2304 160 1869 160 1363 
C 160 531 666 -64 1376 -64 
C 1664 -64 1920 38 2150 237 
C 2323 390 2445 563 2637 941 
L 2547 998 
z
" transform="scale(0.015625)"/>
      <path id="NimbusRomNo9L-Regu-6c" d="M 122 4000 
L 160 4000 
C 230 4000 307 4000 358 4000 
C 563 4000 627 3910 627 3610 
L 627 557 
C 627 211 538 128 134 96 
L 134 0 
L 1645 0 
L 1645 109 
C 1242 109 1165 173 1165 528 
L 1165 4371 
L 1139 4384 
C 806 4275 563 4211 122 4103 
L 122 4000 
z
" transform="scale(0.015625)"/>
      <path id="NimbusRomNo9L-Regu-69" d="M 1120 2929 
L 128 2579 
L 128 2484 
L 179 2490 
C 256 2502 339 2509 397 2509 
C 550 2509 608 2406 608 2125 
L 608 640 
C 608 179 544 109 102 109 
L 102 0 
L 1619 0 
L 1619 96 
C 1197 128 1146 191 1146 650 
L 1146 2910 
L 1120 2929 
z
M 819 4352 
C 646 4352 499 4205 499 4026 
C 499 3847 640 3699 819 3699 
C 1005 3699 1152 3840 1152 4026 
C 1152 4205 1005 4352 819 4352 
z
" transform="scale(0.015625)"/>
      <path id="NimbusRomNo9L-Regu-64" d="M 2202 -64 
L 3142 269 
L 3142 365 
C 3027 365 3014 365 2995 365 
C 2765 365 2714 435 2714 731 
L 2714 4364 
L 2682 4377 
C 2374 4268 2150 4204 1741 4096 
L 1741 3994 
C 1792 4000 1830 4000 1882 4000 
C 2118 4000 2176 3936 2176 3672 
L 2176 2669 
C 1933 2874 1760 2944 1504 2944 
C 768 2944 173 2221 173 1312 
C 173 493 653 -64 1357 -64 
C 1715 -64 1958 64 2176 365 
L 2176 -45 
L 2202 -64 
z
M 2176 653 
C 2176 608 2131 531 2067 461 
C 1952 333 1792 269 1606 269 
C 1075 269 723 781 723 1568 
C 723 2291 1037 2765 1523 2765 
C 1862 2765 2176 2464 2176 2125 
L 2176 653 
z
" transform="scale(0.015625)"/>
      <path id="NimbusRomNo9L-Regu-65" d="M 2611 1053 
C 2304 564 2029 378 1619 378 
C 1254 378 979 564 794 930 
C 678 1174 634 1386 621 1779 
L 2592 1779 
C 2541 2193 2477 2377 2317 2581 
C 2125 2811 1830 2944 1498 2944 
C 1178 2944 877 2829 634 2611 
C 333 2349 160 1894 160 1370 
C 160 486 621 -64 1357 -64 
C 1965 -64 2445 315 2714 1008 
L 2611 1053 
z
M 634 1984 
C 704 2479 922 2714 1312 2714 
C 1702 2714 1856 2535 1939 1984 
L 634 1984 
z
" transform="scale(0.015625)"/>
      <path id="NimbusRomNo9L-Regu-61" d="M 2829 423 
C 2720 333 2643 301 2547 301 
C 2400 301 2355 390 2355 672 
L 2355 1920 
C 2355 2253 2323 2438 2227 2592 
C 2086 2822 1811 2944 1434 2944 
C 832 2944 358 2630 358 2227 
C 358 2080 486 1952 634 1952 
C 787 1952 922 2080 922 2221 
C 922 2246 915 2278 909 2323 
C 896 2381 890 2432 890 2477 
C 890 2650 1094 2790 1350 2790 
C 1664 2790 1837 2605 1837 2259 
L 1837 1869 
C 851 1472 742 1421 467 1178 
C 326 1050 237 832 237 621 
C 237 218 518 -64 909 -64 
C 1190 -64 1453 70 1843 403 
C 1875 70 1990 -64 2253 -64 
C 2470 -64 2605 13 2829 256 
L 2829 423 
z
M 1837 783 
C 1837 584 1805 526 1670 449 
C 1517 359 1338 301 1203 301 
C 979 301 800 520 800 796 
L 800 822 
C 800 1201 1062 1433 1837 1715 
L 1837 783 
z
" transform="scale(0.015625)"/>
      <path id="NimbusRomNo9L-Regu-6e" d="M 102 2579 
C 141 2598 205 2605 275 2605 
C 454 2605 512 2509 512 2195 
L 512 608 
C 512 243 442 154 115 128 
L 115 32 
L 1472 32 
L 1472 128 
C 1146 154 1050 230 1050 461 
L 1050 2259 
C 1357 2547 1498 2624 1709 2624 
C 2022 2624 2176 2426 2176 2003 
L 2176 666 
C 2176 262 2093 154 1773 128 
L 1773 32 
L 3104 32 
L 3104 128 
C 2790 160 2714 237 2714 550 
L 2714 2016 
C 2714 2618 2432 2976 1958 2976 
C 1664 2976 1466 2867 1030 2458 
L 1030 2963 
L 986 2976 
C 672 2861 454 2790 102 2688 
L 102 2579 
z
" transform="scale(0.015625)"/>
      <path id="NimbusRomNo9L-Regu-73" d="M 2016 2010 
L 1990 2880 
L 1920 2880 
L 1907 2867 
C 1850 2822 1843 2816 1818 2816 
C 1779 2816 1715 2829 1645 2861 
C 1504 2915 1363 2944 1197 2944 
C 691 2944 326 2616 326 2154 
C 326 1796 531 1539 1075 1231 
L 1446 1020 
C 1670 892 1779 737 1779 539 
C 1779 256 1574 77 1248 77 
C 1030 77 832 159 710 298 
C 576 455 518 600 435 960 
L 333 960 
L 333 -39 
L 416 -39 
C 461 33 486 48 563 48 
C 621 48 710 35 858 -2 
C 1037 -39 1210 -64 1325 -64 
C 1818 -64 2227 308 2227 757 
C 2227 1077 2074 1289 1690 1520 
L 998 1930 
C 819 2033 723 2194 723 2367 
C 723 2624 922 2803 1216 2803 
C 1581 2803 1773 2583 1920 2010 
L 2016 2010 
z
" transform="scale(0.015625)"/>
      <path id="NimbusRomNo9L-Regu-74" d="M 1632 2880 
L 986 2880 
L 986 3622 
C 986 3686 979 3706 941 3706 
C 896 3648 858 3590 813 3526 
C 570 3174 294 2867 192 2841 
C 122 2794 83 2748 83 2715 
C 83 2695 90 2682 109 2682 
L 448 2682 
L 448 751 
C 448 212 640 -64 1018 -64 
C 1331 -64 1574 90 1786 423 
L 1702 493 
C 1568 333 1459 269 1318 269 
C 1082 269 986 443 986 847 
L 986 2682 
L 1632 2682 
L 1632 2880 
z
" transform="scale(0.015625)"/>
     </defs>
     <use xlink:href="#NimbusRomNo9L-Regu-45" transform="scale(0.996264)"/>
     <use xlink:href="#NimbusRomNo9L-Regu-75" transform="translate(60.871631 0) scale(0.996264)"/>
     <use xlink:href="#NimbusRomNo9L-Regu-63" transform="translate(110.684831 0) scale(0.996264)"/>
     <use xlink:href="#NimbusRomNo9L-Regu-6c" transform="translate(154.9184 0) scale(0.996264)"/>
     <use xlink:href="#NimbusRomNo9L-Regu-69" transform="translate(182.613569 0) scale(0.996264)"/>
     <use xlink:href="#NimbusRomNo9L-Regu-64" transform="translate(210.308739 0) scale(0.996264)"/>
     <use xlink:href="#NimbusRomNo9L-Regu-65" transform="translate(260.12194 0) scale(0.996264)"/>
     <use xlink:href="#NimbusRomNo9L-Regu-61" transform="translate(304.355508 0) scale(0.996264)"/>
     <use xlink:href="#NimbusRomNo9L-Regu-6e" transform="translate(348.589077 0) scale(0.996264)"/>
     <use xlink:href="#NimbusRomNo9L-Regu-64" transform="translate(423.308878 0) scale(0.996264)"/>
     <use xlink:href="#NimbusRomNo9L-Regu-69" transform="translate(473.122078 0) scale(0.996264)"/>
     <use xlink:href="#NimbusRomNo9L-Regu-73" transform="translate(500.817248 0) scale(0.996264)"/>
     <use xlink:href="#NimbusRomNo9L-Regu-74" transform="translate(539.570954 0) scale(0.996264)"/>
     <use xlink:href="#NimbusRomNo9L-Regu-61" transform="translate(567.266124 0) scale(0.996264)"/>
     <use xlink:href="#NimbusRomNo9L-Regu-6e" transform="translate(611.499692 0) scale(0.996264)"/>
     <use xlink:href="#NimbusRomNo9L-Regu-63" transform="translate(661.312893 0) scale(0.996264)"/>
     <use xlink:href="#NimbusRomNo9L-Regu-65" transform="translate(705.546462 0) scale(0.996264)"/>
    </g>
   </g>
  </g>
  <g id="axes_2">
   <g id="patch_7">
    <path d="M 439.56 272.88 
L 848.88 272.88 
L 848.88 32.46769 
L 439.56 32.46769 
z
" style="fill: #f9fafb"/>
   </g>
   <g id="line2d_43">
    <path d="M 458.165455 87.017151 
L 458.165455 218.330539 
" clip-path="url(#p88cb0fd30a)" style="fill: none; stroke: #000000; stroke-opacity: 0.2; stroke-width: 1.5; stroke-linecap: square"/>
   </g>
   <g id="line2d_44">
    <path d="M 458.165455 87.017151 
L 467.706713 218.330539 
" clip-path="url(#p88cb0fd30a)" style="fill: none; stroke: #000000; stroke-opacity: 0.2; stroke-width: 1.5; stroke-linecap: square"/>
   </g>
   <g id="line2d_45">
    <path d="M 458.165455 87.017151 
L 477.247972 218.330539 
" clip-path="url(#p88cb0fd30a)" style="fill: none; stroke: #000000; stroke-opacity: 0.2; stroke-width: 1.5; stroke-linecap: square"/>
   </g>
   <g id="line2d_46">
    <path d="M 458.165455 87.017151 
L 486.789231 218.330539 
" clip-path="url(#p88cb0fd30a)" style="fill: none; stroke: #000000; stroke-opacity: 0.2; stroke-width: 1.5; stroke-linecap: square"/>
   </g>
   <g id="line2d_47">
    <path d="M 458.165455 87.017151 
L 496.33049 218.330539 
" clip-path="url(#p88cb0fd30a)" style="fill: none; stroke: #000000; stroke-opacity: 0.2; stroke-width: 1.5; stroke-linecap: square"/>
   </g>
   <g id="line2d_48">
    <path d="M 458.165455 87.017151 
L 505.871748 218.330539 
" clip-path="url(#p88cb0fd30a)" style="fill: none; stroke: #000000; stroke-opacity: 0.2; stroke-width: 1.5; stroke-linecap: square"/>
   </g>
   <g id="line2d_49">
    <path d="M 467.706713 87.017151 
L 515.413007 218.330539 
" clip-path="url(#p88cb0fd30a)" style="fill: none; stroke: #000000; stroke-opacity: 0.2; stroke-width: 1.5; stroke-linecap: square"/>
   </g>
   <g id="line2d_50">
    <path d="M 477.247972 87.017151 
L 524.954266 218.330539 
" clip-path="url(#p88cb0fd30a)" style="fill: none; stroke: #000000; stroke-opacity: 0.2; stroke-width: 1.5; stroke-linecap: square"/>
   </g>
   <g id="line2d_51">
    <path d="M 486.789231 87.017151 
L 534.495524 218.330539 
" clip-path="url(#p88cb0fd30a)" style="fill: none; stroke: #000000; stroke-opacity: 0.2; stroke-width: 1.5; stroke-linecap: square"/>
   </g>
   <g id="line2d_52">
    <path d="M 496.33049 87.017151 
L 544.036783 218.330539 
" clip-path="url(#p88cb0fd30a)" style="fill: none; stroke: #000000; stroke-opacity: 0.2; stroke-width: 1.5; stroke-linecap: square"/>
   </g>
   <g id="line2d_53">
    <path d="M 505.871748 87.017151 
L 553.578042 218.330539 
" clip-path="url(#p88cb0fd30a)" style="fill: none; stroke: #000000; stroke-opacity: 0.2; stroke-width: 1.5; stroke-linecap: square"/>
   </g>
   <g id="line2d_54">
    <path d="M 515.413007 72.804688 
L 563.119301 204.118076 
" clip-path="url(#p88cb0fd30a)" style="fill: none; stroke: #000000; stroke-opacity: 0.2; stroke-width: 1.5; stroke-linecap: square"/>
   </g>
   <g id="line2d_55">
    <path d="M 524.954266 60.132367 
L 572.660559 191.445755 
" clip-path="url(#p88cb0fd30a)" style="fill: none; stroke: #000000; stroke-opacity: 0.2; stroke-width: 1.5; stroke-linecap: square"/>
   </g>
   <g id="line2d_56">
    <path d="M 534.495524 50.373429 
L 582.201818 181.686817 
" clip-path="url(#p88cb0fd30a)" style="fill: none; stroke: #000000; stroke-opacity: 0.2; stroke-width: 1.5; stroke-linecap: square"/>
   </g>
   <g id="line2d_57">
    <path d="M 544.036783 44.585406 
L 591.743077 175.898794 
" clip-path="url(#p88cb0fd30a)" style="fill: none; stroke: #000000; stroke-opacity: 0.2; stroke-width: 1.5; stroke-linecap: square"/>
   </g>
   <g id="line2d_58">
    <path d="M 553.578042 43.395522 
L 601.284336 174.70891 
" clip-path="url(#p88cb0fd30a)" style="fill: none; stroke: #000000; stroke-opacity: 0.2; stroke-width: 1.5; stroke-linecap: square"/>
   </g>
   <g id="line2d_59">
    <path d="M 563.119301 46.932718 
L 610.825594 178.246106 
" clip-path="url(#p88cb0fd30a)" style="fill: none; stroke: #000000; stroke-opacity: 0.2; stroke-width: 1.5; stroke-linecap: square"/>
   </g>
   <g id="line2d_60">
    <path d="M 572.660559 54.813684 
L 620.366853 186.127072 
" clip-path="url(#p88cb0fd30a)" style="fill: none; stroke: #000000; stroke-opacity: 0.2; stroke-width: 1.5; stroke-linecap: square"/>
   </g>
   <g id="line2d_61">
    <path d="M 582.201818 66.184396 
L 629.908112 197.497784 
" clip-path="url(#p88cb0fd30a)" style="fill: none; stroke: #000000; stroke-opacity: 0.2; stroke-width: 1.5; stroke-linecap: square"/>
   </g>
   <g id="line2d_62">
    <path d="M 591.743077 79.81266 
L 639.449371 211.126048 
" clip-path="url(#p88cb0fd30a)" style="fill: none; stroke: #000000; stroke-opacity: 0.2; stroke-width: 1.5; stroke-linecap: square"/>
   </g>
   <g id="line2d_63">
    <path d="M 601.284336 94.221642 
L 648.990629 225.53503 
" clip-path="url(#p88cb0fd30a)" style="fill: none; stroke: #000000; stroke-opacity: 0.2; stroke-width: 1.5; stroke-linecap: square"/>
   </g>
   <g id="line2d_64">
    <path d="M 610.825594 107.849906 
L 658.531888 239.163294 
" clip-path="url(#p88cb0fd30a)" style="fill: none; stroke: #000000; stroke-opacity: 0.2; stroke-width: 1.5; stroke-linecap: square"/>
   </g>
   <g id="line2d_65">
    <path d="M 620.366853 119.220617 
L 668.073147 250.534005 
" clip-path="url(#p88cb0fd30a)" style="fill: none; stroke: #000000; stroke-opacity: 0.2; stroke-width: 1.5; stroke-linecap: square"/>
   </g>
   <g id="line2d_66">
    <path d="M 629.908112 127.101584 
L 677.614406 258.414972 
" clip-path="url(#p88cb0fd30a)" style="fill: none; stroke: #000000; stroke-opacity: 0.2; stroke-width: 1.5; stroke-linecap: square"/>
   </g>
   <g id="line2d_67">
    <path d="M 639.449371 130.63878 
L 687.155664 261.952168 
" clip-path="url(#p88cb0fd30a)" style="fill: none; stroke: #000000; stroke-opacity: 0.2; stroke-width: 1.5; stroke-linecap: square"/>
   </g>
   <g id="line2d_68">
    <path d="M 648.990629 129.448895 
L 696.696923 260.762283 
" clip-path="url(#p88cb0fd30a)" style="fill: none; stroke: #000000; stroke-opacity: 0.2; stroke-width: 1.5; stroke-linecap: square"/>
   </g>
   <g id="line2d_69">
    <path d="M 658.531888 123.660873 
L 706.238182 254.974261 
" clip-path="url(#p88cb0fd30a)" style="fill: none; stroke: #000000; stroke-opacity: 0.2; stroke-width: 1.5; stroke-linecap: square"/>
   </g>
   <g id="line2d_70">
    <path d="M 668.073147 113.901935 
L 715.779441 245.215323 
" clip-path="url(#p88cb0fd30a)" style="fill: none; stroke: #000000; stroke-opacity: 0.2; stroke-width: 1.5; stroke-linecap: square"/>
   </g>
   <g id="line2d_71">
    <path d="M 677.614406 101.229613 
L 725.320699 232.543001 
" clip-path="url(#p88cb0fd30a)" style="fill: none; stroke: #000000; stroke-opacity: 0.2; stroke-width: 1.5; stroke-linecap: square"/>
   </g>
   <g id="line2d_72">
    <path d="M 687.155664 87.017151 
L 734.861958 218.330539 
" clip-path="url(#p88cb0fd30a)" style="fill: none; stroke: #000000; stroke-opacity: 0.2; stroke-width: 1.5; stroke-linecap: square"/>
   </g>
   <g id="line2d_73">
    <path d="M 696.696923 87.017151 
L 744.403217 218.330539 
" clip-path="url(#p88cb0fd30a)" style="fill: none; stroke: #000000; stroke-opacity: 0.2; stroke-width: 1.5; stroke-linecap: square"/>
   </g>
   <g id="line2d_74">
    <path d="M 706.238182 87.017151 
L 744.403217 218.330539 
" clip-path="url(#p88cb0fd30a)" style="fill: none; stroke: #000000; stroke-opacity: 0.2; stroke-width: 1.5; stroke-linecap: square"/>
   </g>
   <g id="line2d_75">
    <path d="M 715.779441 87.017151 
L 744.403217 218.330539 
" clip-path="url(#p88cb0fd30a)" style="fill: none; stroke: #000000; stroke-opacity: 0.2; stroke-width: 1.5; stroke-linecap: square"/>
   </g>
   <g id="line2d_76">
    <path d="M 725.320699 87.017151 
L 744.403217 218.330539 
" clip-path="url(#p88cb0fd30a)" style="fill: none; stroke: #000000; stroke-opacity: 0.2; stroke-width: 1.5; stroke-linecap: square"/>
   </g>
   <g id="line2d_77">
    <path d="M 734.861958 87.017151 
L 744.403217 218.330539 
" clip-path="url(#p88cb0fd30a)" style="fill: none; stroke: #000000; stroke-opacity: 0.2; stroke-width: 1.5; stroke-linecap: square"/>
   </g>
   <g id="line2d_78">
    <path d="M 744.403217 87.017151 
L 744.403217 218.330539 
" clip-path="url(#p88cb0fd30a)" style="fill: none; stroke: #000000; stroke-opacity: 0.2; stroke-width: 1.5; stroke-linecap: square"/>
   </g>
   <g id="line2d_79">
    <path d="M 753.944476 87.017151 
L 753.944476 218.330539 
" clip-path="url(#p88cb0fd30a)" style="fill: none; stroke: #000000; stroke-opacity: 0.2; stroke-width: 1.5; stroke-linecap: square"/>
   </g>
   <g id="line2d_80">
    <path d="M 763.485734 87.017151 
L 763.485734 218.330539 
" clip-path="url(#p88cb0fd30a)" style="fill: none; stroke: #000000; stroke-opacity: 0.2; stroke-width: 1.5; stroke-linecap: square"/>
   </g>
   <g id="line2d_81">
    <path d="M 773.026993 87.017151 
L 773.026993 218.330539 
" clip-path="url(#p88cb0fd30a)" style="fill: none; stroke: #000000; stroke-opacity: 0.2; stroke-width: 1.5; stroke-linecap: square"/>
   </g>
   <g id="line2d_82">
    <path d="M 782.568252 87.017151 
L 782.568252 218.330539 
" clip-path="url(#p88cb0fd30a)" style="fill: none; stroke: #000000; stroke-opacity: 0.2; stroke-width: 1.5; stroke-linecap: square"/>
   </g>
   <g id="line2d_83">
    <path d="M 792.10951 87.017151 
L 792.10951 218.330539 
" clip-path="url(#p88cb0fd30a)" style="fill: none; stroke: #000000; stroke-opacity: 0.2; stroke-width: 1.5; stroke-linecap: square"/>
   </g>
   <g id="line2d_84">
    <path d="M 801.650769 87.017151 
L 801.650769 218.330539 
" clip-path="url(#p88cb0fd30a)" style="fill: none; stroke: #000000; stroke-opacity: 0.2; stroke-width: 1.5; stroke-linecap: square"/>
   </g>
   <g id="line2d_85">
    <path d="M 811.192028 87.017151 
L 811.192028 218.330539 
" clip-path="url(#p88cb0fd30a)" style="fill: none; stroke: #000000; stroke-opacity: 0.2; stroke-width: 1.5; stroke-linecap: square"/>
   </g>
   <g id="line2d_86">
    <path d="M 820.733287 87.017151 
L 820.733287 218.330539 
" clip-path="url(#p88cb0fd30a)" style="fill: none; stroke: #000000; stroke-opacity: 0.2; stroke-width: 1.5; stroke-linecap: square"/>
   </g>
   <g id="line2d_87">
    <path d="M 830.274545 87.017151 
L 830.274545 218.330539 
" clip-path="url(#p88cb0fd30a)" style="fill: none; stroke: #000000; stroke-opacity: 0.2; stroke-width: 1.5; stroke-linecap: square"/>
   </g>
   <g id="line2d_88">
    <path d="M 458.165455 87.017151 
L 467.706713 87.017151 
L 477.247972 87.017151 
L 486.789231 87.017151 
L 496.33049 87.017151 
L 505.871748 87.017151 
L 515.413007 72.804688 
L 524.954266 60.132367 
L 534.495524 50.373429 
L 544.036783 44.585406 
L 553.578042 43.395522 
L 563.119301 46.932718 
L 572.660559 54.813684 
L 582.201818 66.184396 
L 591.743077 79.81266 
L 601.284336 94.221642 
L 610.825594 107.849906 
L 620.366853 119.220617 
L 629.908112 127.101584 
L 639.449371 130.63878 
L 648.990629 129.448895 
L 658.531888 123.660873 
L 668.073147 113.901935 
L 677.614406 101.229613 
L 687.155664 87.017151 
L 696.696923 87.017151 
L 706.238182 87.017151 
L 715.779441 87.017151 
L 725.320699 87.017151 
L 734.861958 87.017151 
L 744.403217 87.017151 
L 753.944476 87.017151 
L 763.485734 87.017151 
L 773.026993 87.017151 
L 782.568252 87.017151 
L 792.10951 87.017151 
L 801.650769 87.017151 
L 811.192028 87.017151 
L 820.733287 87.017151 
L 830.274545 87.017151 
" clip-path="url(#p88cb0fd30a)" style="fill: none; stroke: #ff7f00; stroke-width: 1.5; stroke-linecap: square"/>
    <g clip-path="url(#p88cb0fd30a)">
     <use xlink:href="#mbfd8532314" x="458.165455" y="87.017151" style="fill: #ff7f00; stroke: #ff7f00"/>
     <use xlink:href="#mbfd8532314" x="467.706713" y="87.017151" style="fill: #ff7f00; stroke: #ff7f00"/>
     <use xlink:href="#mbfd8532314" x="477.247972" y="87.017151" style="fill: #ff7f00; stroke: #ff7f00"/>
     <use xlink:href="#mbfd8532314" x="486.789231" y="87.017151" style="fill: #ff7f00; stroke: #ff7f00"/>
     <use xlink:href="#mbfd8532314" x="496.33049" y="87.017151" style="fill: #ff7f00; stroke: #ff7f00"/>
     <use xlink:href="#mbfd8532314" x="505.871748" y="87.017151" style="fill: #ff7f00; stroke: #ff7f00"/>
     <use xlink:href="#mbfd8532314" x="515.413007" y="72.804688" style="fill: #ff7f00; stroke: #ff7f00"/>
     <use xlink:href="#mbfd8532314" x="524.954266" y="60.132367" style="fill: #ff7f00; stroke: #ff7f00"/>
     <use xlink:href="#mbfd8532314" x="534.495524" y="50.373429" style="fill: #ff7f00; stroke: #ff7f00"/>
     <use xlink:href="#mbfd8532314" x="544.036783" y="44.585406" style="fill: #ff7f00; stroke: #ff7f00"/>
     <use xlink:href="#mbfd8532314" x="553.578042" y="43.395522" style="fill: #ff7f00; stroke: #ff7f00"/>
     <use xlink:href="#mbfd8532314" x="563.119301" y="46.932718" style="fill: #ff7f00; stroke: #ff7f00"/>
     <use xlink:href="#mbfd8532314" x="572.660559" y="54.813684" style="fill: #ff7f00; stroke: #ff7f00"/>
     <use xlink:href="#mbfd8532314" x="582.201818" y="66.184396" style="fill: #ff7f00; stroke: #ff7f00"/>
     <use xlink:href="#mbfd8532314" x="591.743077" y="79.81266" style="fill: #ff7f00; stroke: #ff7f00"/>
     <use xlink:href="#mbfd8532314" x="601.284336" y="94.221642" style="fill: #ff7f00; stroke: #ff7f00"/>
     <use xlink:href="#mbfd8532314" x="610.825594" y="107.849906" style="fill: #ff7f00; stroke: #ff7f00"/>
     <use xlink:href="#mbfd8532314" x="620.366853" y="119.220617" style="fill: #ff7f00; stroke: #ff7f00"/>
     <use xlink:href="#mbfd8532314" x="629.908112" y="127.101584" style="fill: #ff7f00; stroke: #ff7f00"/>
     <use xlink:href="#mbfd8532314" x="639.449371" y="130.63878" style="fill: #ff7f00; stroke: #ff7f00"/>
     <use xlink:href="#mbfd8532314" x="648.990629" y="129.448895" style="fill: #ff7f00; stroke: #ff7f00"/>
     <use xlink:href="#mbfd8532314" x="658.531888" y="123.660873" style="fill: #ff7f00; stroke: #ff7f00"/>
     <use xlink:href="#mbfd8532314" x="668.073147" y="113.901935" style="fill: #ff7f00; stroke: #ff7f00"/>
     <use xlink:href="#mbfd8532314" x="677.614406" y="101.229613" style="fill: #ff7f00; stroke: #ff7f00"/>
     <use xlink:href="#mbfd8532314" x="687.155664" y="87.017151" style="fill: #ff7f00; stroke: #ff7f00"/>
     <use xlink:href="#mbfd8532314" x="696.696923" y="87.017151" style="fill: #ff7f00; stroke: #ff7f00"/>
     <use xlink:href="#mbfd8532314" x="706.238182" y="87.017151" style="fill: #ff7f00; stroke: #ff7f00"/>
     <use xlink:href="#mbfd8532314" x="715.779441" y="87.017151" style="fill: #ff7f00; stroke: #ff7f00"/>
     <use xlink:href="#mbfd8532314" x="725.320699" y="87.017151" style="fill: #ff7f00; stroke: #ff7f00"/>
     <use xlink:href="#mbfd8532314" x="734.861958" y="87.017151" style="fill: #ff7f00; stroke: #ff7f00"/>
     <use xlink:href="#mbfd8532314" x="744.403217" y="87.017151" style="fill: #ff7f00; stroke: #ff7f00"/>
     <use xlink:href="#mbfd8532314" x="753.944476" y="87.017151" style="fill: #ff7f00; stroke: #ff7f00"/>
     <use xlink:href="#mbfd8532314" x="763.485734" y="87.017151" style="fill: #ff7f00; stroke: #ff7f00"/>
     <use xlink:href="#mbfd8532314" x="773.026993" y="87.017151" style="fill: #ff7f00; stroke: #ff7f00"/>
     <use xlink:href="#mbfd8532314" x="782.568252" y="87.017151" style="fill: #ff7f00; stroke: #ff7f00"/>
     <use xlink:href="#mbfd8532314" x="792.10951" y="87.017151" style="fill: #ff7f00; stroke: #ff7f00"/>
     <use xlink:href="#mbfd8532314" x="801.650769" y="87.017151" style="fill: #ff7f00; stroke: #ff7f00"/>
     <use xlink:href="#mbfd8532314" x="811.192028" y="87.017151" style="fill: #ff7f00; stroke: #ff7f00"/>
     <use xlink:href="#mbfd8532314" x="820.733287" y="87.017151" style="fill: #ff7f00; stroke: #ff7f00"/>
     <use xlink:href="#mbfd8532314" x="830.274545" y="87.017151" style="fill: #ff7f00; stroke: #ff7f00"/>
    </g>
   </g>
   <g id="line2d_89">
    <path d="M 458.165455 218.330539 
L 467.706713 218.330539 
L 477.247972 218.330539 
L 486.789231 218.330539 
L 496.33049 218.330539 
L 505.871748 218.330539 
L 515.413007 218.330539 
L 524.954266 218.330539 
L 534.495524 218.330539 
L 544.036783 218.330539 
L 553.578042 218.330539 
L 563.119301 204.118076 
L 572.660559 191.445755 
L 582.201818 181.686817 
L 591.743077 175.898794 
L 601.284336 174.70891 
L 610.825594 178.246106 
L 620.366853 186.127072 
L 629.908112 197.497784 
L 639.449371 211.126048 
L 648.990629 225.53503 
L 658.531888 239.163294 
L 668.073147 250.534005 
L 677.614406 258.414972 
L 687.155664 261.952168 
L 696.696923 260.762283 
L 706.238182 254.974261 
L 715.779441 245.215323 
L 725.320699 232.543001 
L 734.861958 218.330539 
L 744.403217 218.330539 
L 753.944476 218.330539 
L 763.485734 218.330539 
L 773.026993 218.330539 
L 782.568252 218.330539 
L 792.10951 218.330539 
L 801.650769 218.330539 
L 811.192028 218.330539 
L 820.733287 218.330539 
L 830.274545 218.330539 
" clip-path="url(#p88cb0fd30a)" style="fill: none; stroke: #ff7f00; stroke-width: 1.5; stroke-linecap: square"/>
    <g clip-path="url(#p88cb0fd30a)">
     <use xlink:href="#mbfd8532314" x="458.165455" y="218.330539" style="fill: #ff7f00; stroke: #ff7f00"/>
     <use xlink:href="#mbfd8532314" x="467.706713" y="218.330539" style="fill: #ff7f00; stroke: #ff7f00"/>
     <use xlink:href="#mbfd8532314" x="477.247972" y="218.330539" style="fill: #ff7f00; stroke: #ff7f00"/>
     <use xlink:href="#mbfd8532314" x="486.789231" y="218.330539" style="fill: #ff7f00; stroke: #ff7f00"/>
     <use xlink:href="#mbfd8532314" x="496.33049" y="218.330539" style="fill: #ff7f00; stroke: #ff7f00"/>
     <use xlink:href="#mbfd8532314" x="505.871748" y="218.330539" style="fill: #ff7f00; stroke: #ff7f00"/>
     <use xlink:href="#mbfd8532314" x="515.413007" y="218.330539" style="fill: #ff7f00; stroke: #ff7f00"/>
     <use xlink:href="#mbfd8532314" x="524.954266" y="218.330539" style="fill: #ff7f00; stroke: #ff7f00"/>
     <use xlink:href="#mbfd8532314" x="534.495524" y="218.330539" style="fill: #ff7f00; stroke: #ff7f00"/>
     <use xlink:href="#mbfd8532314" x="544.036783" y="218.330539" style="fill: #ff7f00; stroke: #ff7f00"/>
     <use xlink:href="#mbfd8532314" x="553.578042" y="218.330539" style="fill: #ff7f00; stroke: #ff7f00"/>
     <use xlink:href="#mbfd8532314" x="563.119301" y="204.118076" style="fill: #ff7f00; stroke: #ff7f00"/>
     <use xlink:href="#mbfd8532314" x="572.660559" y="191.445755" style="fill: #ff7f00; stroke: #ff7f00"/>
     <use xlink:href="#mbfd8532314" x="582.201818" y="181.686817" style="fill: #ff7f00; stroke: #ff7f00"/>
     <use xlink:href="#mbfd8532314" x="591.743077" y="175.898794" style="fill: #ff7f00; stroke: #ff7f00"/>
     <use xlink:href="#mbfd8532314" x="601.284336" y="174.70891" style="fill: #ff7f00; stroke: #ff7f00"/>
     <use xlink:href="#mbfd8532314" x="610.825594" y="178.246106" style="fill: #ff7f00; stroke: #ff7f00"/>
     <use xlink:href="#mbfd8532314" x="620.366853" y="186.127072" style="fill: #ff7f00; stroke: #ff7f00"/>
     <use xlink:href="#mbfd8532314" x="629.908112" y="197.497784" style="fill: #ff7f00; stroke: #ff7f00"/>
     <use xlink:href="#mbfd8532314" x="639.449371" y="211.126048" style="fill: #ff7f00; stroke: #ff7f00"/>
     <use xlink:href="#mbfd8532314" x="648.990629" y="225.53503" style="fill: #ff7f00; stroke: #ff7f00"/>
     <use xlink:href="#mbfd8532314" x="658.531888" y="239.163294" style="fill: #ff7f00; stroke: #ff7f00"/>
     <use xlink:href="#mbfd8532314" x="668.073147" y="250.534005" style="fill: #ff7f00; stroke: #ff7f00"/>
     <use xlink:href="#mbfd8532314" x="677.614406" y="258.414972" style="fill: #ff7f00; stroke: #ff7f00"/>
     <use xlink:href="#mbfd8532314" x="687.155664" y="261.952168" style="fill: #ff7f00; stroke: #ff7f00"/>
     <use xlink:href="#mbfd8532314" x="696.696923" y="260.762283" style="fill: #ff7f00; stroke: #ff7f00"/>
     <use xlink:href="#mbfd8532314" x="706.238182" y="254.974261" style="fill: #ff7f00; stroke: #ff7f00"/>
     <use xlink:href="#mbfd8532314" x="715.779441" y="245.215323" style="fill: #ff7f00; stroke: #ff7f00"/>
     <use xlink:href="#mbfd8532314" x="725.320699" y="232.543001" style="fill: #ff7f00; stroke: #ff7f00"/>
     <use xlink:href="#mbfd8532314" x="734.861958" y="218.330539" style="fill: #ff7f00; stroke: #ff7f00"/>
     <use xlink:href="#mbfd8532314" x="744.403217" y="218.330539" style="fill: #ff7f00; stroke: #ff7f00"/>
     <use xlink:href="#mbfd8532314" x="753.944476" y="218.330539" style="fill: #ff7f00; stroke: #ff7f00"/>
     <use xlink:href="#mbfd8532314" x="763.485734" y="218.330539" style="fill: #ff7f00; stroke: #ff7f00"/>
     <use xlink:href="#mbfd8532314" x="773.026993" y="218.330539" style="fill: #ff7f00; stroke: #ff7f00"/>
     <use xlink:href="#mbfd8532314" x="782.568252" y="218.330539" style="fill: #ff7f00; stroke: #ff7f00"/>
     <use xlink:href="#mbfd8532314" x="792.10951" y="218.330539" style="fill: #ff7f00; stroke: #ff7f00"/>
     <use xlink:href="#mbfd8532314" x="801.650769" y="218.330539" style="fill: #ff7f00; stroke: #ff7f00"/>
     <use xlink:href="#mbfd8532314" x="811.192028" y="218.330539" style="fill: #ff7f00; stroke: #ff7f00"/>
     <use xlink:href="#mbfd8532314" x="820.733287" y="218.330539" style="fill: #ff7f00; stroke: #ff7f00"/>
     <use xlink:href="#mbfd8532314" x="830.274545" y="218.330539" style="fill: #ff7f00; stroke: #ff7f00"/>
    </g>
   </g>
   <g id="matplotlib.axis_3"/>
   <g id="matplotlib.axis_4"/>
   <g id="patch_8">
    <path d="M 439.56 272.88 
L 439.56 32.46769 
" style="fill: none; stroke: #000000; stroke-width: 0.8; stroke-linejoin: miter; stroke-linecap: square"/>
   </g>
   <g id="patch_9">
    <path d="M 848.88 272.88 
L 848.88 32.46769 
" style="fill: none; stroke: #000000; stroke-width: 0.8; stroke-linejoin: miter; stroke-linecap: square"/>
   </g>
   <g id="patch_10">
    <path d="M 439.56 272.88 
L 848.88 272.88 
" style="fill: none; stroke: #000000; stroke-width: 0.8; stroke-linejoin: miter; stroke-linecap: square"/>
   </g>
   <g id="patch_11">
    <path d="M 439.56 32.46769 
L 848.88 32.46769 
" style="fill: none; stroke: #000000; stroke-width: 0.8; stroke-linejoin: miter; stroke-linecap: square"/>
   </g>
   <g id="text_2">
    <!-- Dynamic Time Warping -->
    <g transform="translate(563.371456 26.46769) scale(0.168 -0.168)">
     <defs>
      <path id="NimbusRomNo9L-Regu-44" d="M 666 679 
C 666 217 589 134 102 134 
L 102 0 
L 1920 0 
C 2662 0 3334 210 3731 568 
C 4147 944 4384 1512 4384 2131 
C 4384 2706 4192 3203 3840 3554 
C 3405 3994 2707 4224 1830 4224 
L 102 4224 
L 102 4102 
C 608 4057 666 4000 666 3525 
L 666 679 
z
M 1318 3738 
C 1318 3936 1389 3987 1651 3987 
C 2202 3987 2618 3885 2925 3668 
C 3424 3323 3686 2775 3686 2087 
C 3686 1334 3424 798 2906 498 
C 2579 314 2208 237 1651 237 
C 1395 237 1318 294 1318 498 
L 1318 3738 
z
" transform="scale(0.015625)"/>
      <path id="NimbusRomNo9L-Regu-79" d="M 3040 2880 
L 2176 2880 
L 2176 2784 
C 2381 2784 2483 2726 2483 2623 
C 2483 2597 2477 2559 2458 2514 
L 1837 742 
L 1101 2377 
C 1062 2468 1037 2552 1037 2622 
C 1037 2739 1133 2784 1408 2784 
L 1408 2880 
L 90 2880 
L 90 2790 
C 256 2765 365 2694 416 2585 
L 1146 1005 
L 1165 953 
L 1261 761 
C 1440 440 1542 209 1542 112 
C 1542 16 1395 -389 1286 -582 
C 1197 -749 1056 -871 966 -871 
C 928 -871 870 -858 806 -826 
C 685 -781 576 -755 467 -755 
C 320 -755 192 -883 192 -1037 
C 192 -1248 397 -1408 666 -1408 
C 1094 -1408 1402 -1049 1747 -124 
L 2733 2495 
C 2816 2701 2886 2765 3040 2784 
L 3040 2880 
z
" transform="scale(0.015625)"/>
      <path id="NimbusRomNo9L-Regu-6d" d="M 122 2547 
C 205 2566 256 2573 326 2573 
C 493 2573 550 2470 550 2162 
L 550 539 
C 550 192 461 96 102 96 
L 102 0 
L 1523 0 
L 1523 96 
C 1184 96 1088 166 1088 418 
L 1088 2234 
C 1088 2246 1139 2310 1184 2355 
C 1344 2502 1619 2611 1843 2611 
C 2125 2611 2266 2385 2266 1932 
L 2266 528 
C 2266 167 2195 96 1830 96 
L 1830 0 
L 3264 0 
L 3264 96 
C 2899 96 2803 205 2803 603 
L 2803 2221 
C 2995 2496 3206 2611 3501 2611 
C 3866 2611 3981 2438 3981 1907 
L 3981 557 
C 3981 192 3930 141 3558 96 
L 3558 0 
L 4960 0 
L 4960 96 
L 4794 115 
C 4602 115 4518 230 4518 480 
L 4518 1802 
C 4518 2559 4269 2944 3776 2944 
C 3405 2944 3078 2778 2733 2407 
C 2618 2771 2400 2944 2054 2944 
C 1773 2944 1594 2854 1062 2451 
L 1062 2931 
L 1018 2944 
C 691 2822 474 2752 122 2656 
L 122 2547 
z
" transform="scale(0.015625)"/>
      <path id="NimbusRomNo9L-Regu-54" d="M 1626 3968 
L 1626 751 
C 1626 204 1555 134 1024 134 
L 1024 0 
L 2893 0 
L 2893 134 
C 2368 134 2278 217 2278 687 
L 2278 3968 
L 2624 3968 
C 3354 3968 3494 3853 3642 3149 
L 3795 3149 
L 3757 4237 
L 147 4237 
L 109 3149 
L 262 3149 
C 416 3846 563 3968 1280 3968 
L 1626 3968 
z
" transform="scale(0.015625)"/>
      <path id="NimbusRomNo9L-Regu-57" d="M 5965 4224 
L 4698 4224 
L 4698 4102 
C 5024 4070 5139 4000 5139 3826 
C 5139 3692 5101 3524 5037 3345 
L 4237 1169 
L 3392 3358 
C 3379 3390 3322 3531 3315 3551 
C 3258 3685 3219 3807 3219 3877 
C 3219 4032 3366 4096 3712 4096 
L 3712 4224 
L 2003 4224 
L 2003 4096 
C 2368 4096 2432 4038 2650 3524 
L 2861 2998 
L 2176 1188 
L 1254 3612 
C 1210 3728 1184 3838 1184 3909 
C 1184 4051 1274 4096 1600 4096 
L 1600 4224 
L 32 4224 
L 32 4102 
C 358 4070 454 3955 691 3351 
L 1926 -96 
L 2022 -96 
L 3008 2619 
L 4032 -96 
L 4128 -96 
C 4672 1579 4736 1759 5434 3647 
C 5555 3981 5626 4038 5965 4102 
L 5965 4224 
z
" transform="scale(0.015625)"/>
      <path id="NimbusRomNo9L-Regu-72" d="M 45 2496 
C 134 2515 192 2522 269 2522 
C 429 2522 486 2419 486 2138 
L 486 538 
C 486 218 442 173 32 96 
L 32 0 
L 1568 0 
L 1568 102 
C 1133 102 1024 199 1024 565 
L 1024 2013 
C 1024 2219 1299 2541 1472 2541 
C 1510 2541 1568 2509 1638 2445 
C 1741 2355 1811 2317 1894 2317 
C 2048 2317 2144 2426 2144 2605 
C 2144 2816 2010 2944 1792 2944 
C 1523 2944 1338 2797 1024 2343 
L 1024 2931 
L 992 2944 
C 653 2803 422 2721 45 2599 
L 45 2496 
z
" transform="scale(0.015625)"/>
      <path id="NimbusRomNo9L-Regu-70" d="M 58 2516 
C 115 2522 160 2522 218 2522 
C 435 2522 480 2458 480 2155 
L 480 -855 
C 480 -1189 410 -1261 32 -1299 
L 32 -1408 
L 1581 -1408 
L 1581 -1293 
C 1101 -1293 1018 -1222 1018 -816 
L 1018 199 
C 1242 -13 1395 -77 1664 -77 
C 2419 -77 3008 643 3008 1575 
C 3008 2372 2560 2944 1939 2944 
C 1581 2944 1299 2784 1018 2438 
L 1018 2931 
L 979 2944 
C 634 2810 410 2726 58 2618 
L 58 2516 
z
M 1018 2136 
C 1018 2329 1376 2560 1670 2560 
C 2144 2560 2458 2071 2458 1324 
C 2458 611 2144 128 1683 128 
C 1382 128 1018 359 1018 552 
L 1018 2136 
z
" transform="scale(0.015625)"/>
      <path id="NimbusRomNo9L-Regu-67" d="M 3008 2496 
L 3008 2746 
L 2515 2746 
C 2387 2746 2291 2763 2163 2802 
L 2022 2847 
C 1850 2903 1677 2931 1510 2931 
C 915 2931 442 2467 442 1881 
C 442 1476 614 1230 1037 1018 
C 915 906 800 799 762 768 
C 550 588 467 463 467 338 
C 467 206 544 131 806 6 
C 352 -329 179 -543 179 -781 
C 179 -1124 678 -1408 1286 -1408 
C 1766 -1408 2266 -1238 2598 -962 
C 2842 -759 2950 -548 2950 -299 
C 2950 108 2650 384 2176 384 
L 1350 384 
C 1011 384 851 443 851 548 
C 851 678 1062 908 1235 960 
C 1293 953 1338 947 1357 947 
C 1478 934 1562 928 1600 928 
C 1837 928 2093 1026 2291 1203 
C 2502 1387 2598 1617 2598 1945 
C 2598 2135 2566 2286 2477 2496 
L 3008 2496 
z
M 941 -13 
C 1152 -58 1664 -96 1978 -96 
C 2560 -96 2771 -180 2771 -414 
C 2771 -791 2285 -1043 1562 -1043 
C 998 -1043 627 -855 627 -570 
C 627 -420 672 -336 941 -13 
z
M 973 2145 
C 973 2526 1152 2752 1446 2752 
C 1645 2752 1811 2642 1914 2449 
C 2029 2223 2106 1927 2106 1675 
C 2106 1314 1920 1088 1626 1088 
C 1242 1088 973 1507 973 2126 
L 973 2145 
z
" transform="scale(0.015625)"/>
     </defs>
     <use xlink:href="#NimbusRomNo9L-Regu-44" transform="scale(0.996264)"/>
     <use xlink:href="#NimbusRomNo9L-Regu-79" transform="translate(71.929985 0) scale(0.996264)"/>
     <use xlink:href="#NimbusRomNo9L-Regu-6e" transform="translate(121.743185 0) scale(0.996264)"/>
     <use xlink:href="#NimbusRomNo9L-Regu-61" transform="translate(171.556386 0) scale(0.996264)"/>
     <use xlink:href="#NimbusRomNo9L-Regu-6d" transform="translate(215.789955 0) scale(0.996264)"/>
     <use xlink:href="#NimbusRomNo9L-Regu-69" transform="translate(293.298325 0) scale(0.996264)"/>
     <use xlink:href="#NimbusRomNo9L-Regu-63" transform="translate(320.993494 0) scale(0.996264)"/>
     <use xlink:href="#NimbusRomNo9L-Regu-54" transform="translate(390.133663 0) scale(0.996264)"/>
     <use xlink:href="#NimbusRomNo9L-Regu-69" transform="translate(447.518567 0) scale(0.996264)"/>
     <use xlink:href="#NimbusRomNo9L-Regu-6d" transform="translate(475.213737 0) scale(0.996264)"/>
     <use xlink:href="#NimbusRomNo9L-Regu-65" transform="translate(552.722107 0) scale(0.996264)"/>
     <use xlink:href="#NimbusRomNo9L-Regu-57" transform="translate(621.862276 0) scale(0.996264)"/>
     <use xlink:href="#NimbusRomNo9L-Regu-61" transform="translate(707.939602 0) scale(0.996264)"/>
     <use xlink:href="#NimbusRomNo9L-Regu-72" transform="translate(752.173171 0) scale(0.996264)"/>
     <use xlink:href="#NimbusRomNo9L-Regu-70" transform="translate(785.348401 0) scale(0.996264)"/>
     <use xlink:href="#NimbusRomNo9L-Regu-69" transform="translate(835.161601 0) scale(0.996264)"/>
     <use xlink:href="#NimbusRomNo9L-Regu-6e" transform="translate(862.856771 0) scale(0.996264)"/>
     <use xlink:href="#NimbusRomNo9L-Regu-67" transform="translate(912.669971 0) scale(0.996264)"/>
    </g>
   </g>
  </g>
 </g>
 <defs>
  <clipPath id="p6e78ebfdad">
   <rect x="15.12" y="32.46769" width="409.32" height="240.41231"/>
  </clipPath>
  <clipPath id="p88cb0fd30a">
   <rect x="439.56" y="32.46769" width="409.32" height="240.41231"/>
  </clipPath>
 </defs>
</svg>
